<?xml version="1.0" encoding="iso-8859-1"?>
<!-- Uploaded to: SVG Repo, www.svgrepo.com, Generator: SVG Repo Mixer Tools -->
<svg fill="#000000" height="800px" width="800px" version="1.1" id="Layer_1" xmlns="http://www.w3.org/2000/svg" xmlns:xlink="http://www.w3.org/1999/xlink" 
	 viewBox="0 0 512.003 512.003" xml:space="preserve">
<g>
	<g>
		<g>
			<path d="M232.902,326.769c-3.328,3.319-3.328,8.695-0.009,12.032c3.294,3.328,8.695,3.362,12.049,0.06
				c2.483-2.441,7.714-6.059,11.059-6.059c3.345,0,8.576,3.618,11.034,6.033c1.664,1.664,3.849,2.5,6.033,2.5
				c2.185,0,4.369-0.836,6.033-2.5c3.337-3.336,3.337-8.73,0-12.066c-1.126-1.126-11.366-11.034-23.1-11.034
				S234.028,325.643,232.902,326.769z"/>
			<path d="M198.768,284.103c-3.328,3.319-3.328,8.695-0.009,12.032c3.294,3.328,8.695,3.362,12.049,0.06
				c2.483-2.441,7.714-6.059,11.059-6.059c3.345,0,8.576,3.618,11.034,6.033c1.664,1.664,3.849,2.5,6.033,2.5
				c2.185,0,4.369-0.836,6.033-2.5c3.337-3.337,3.337-8.73,0-12.066c-1.126-1.126-11.366-11.034-23.1-11.034
				S199.895,282.976,198.768,284.103z"/>
			<path d="M256.001,230.402c-11.733,0-21.973,9.907-23.1,11.034c-3.328,3.319-3.328,8.695-0.009,12.032
				c3.294,3.328,8.695,3.362,12.049,0.06c2.483-2.44,7.714-6.059,11.059-6.059c3.345,0,8.576,3.618,11.034,6.033
				c1.664,1.664,3.849,2.5,6.033,2.5c2.185,0,4.369-0.836,6.033-2.5c3.337-3.337,3.337-8.73,0-12.066
				C277.975,240.31,267.735,230.402,256.001,230.402z"/>
			<path d="M127.907,214.599c0.7-4.659-2.517-9.003-7.177-9.702c-4.727-0.7-8.994,2.526-9.702,7.177
				c-14.481,96.486-22.229,193.178,18.705,246.835c1.673,2.21,4.215,3.362,6.793,3.362c1.801,0,3.627-0.572,5.163-1.749
				c3.755-2.859,4.471-8.218,1.613-11.964C106.122,399.815,114.655,302.936,127.907,214.599z"/>
			<path d="M290.135,273.069c-11.733,0-21.973,9.907-23.1,11.034c-3.328,3.319-3.328,8.695-0.008,12.032
				c3.294,3.328,8.695,3.362,12.049,0.06c2.483-2.441,7.714-6.059,11.059-6.059c3.345,0,8.576,3.618,11.034,6.033
				c1.664,1.664,3.849,2.5,6.033,2.5c2.185,0,4.369-0.836,6.033-2.5c3.336-3.337,3.336-8.73,0-12.066
				C312.108,282.976,301.868,273.069,290.135,273.069z"/>
			<path d="M315.735,409.602c-23.526,0-42.667,22.963-42.667,51.2c0,4.48,0.538,8.806,1.434,12.954
				c-4.156,1.911-10.59,4.113-18.5,4.113c-8.064,0-14.49-2.321-18.475-4.25c0.887-4.104,1.408-8.38,1.408-12.817
				c0-28.237-19.14-51.2-42.667-51.2c-23.526,0-42.667,22.963-42.667,51.2c0,28.237,19.14,51.2,42.667,51.2
				c14.626,0,27.546-8.883,35.234-22.374c5.828,2.637,14.217,5.308,24.499,5.308c10.172,0,18.637-2.62,24.567-5.205
				c7.697,13.431,20.582,22.272,35.166,22.272c23.526,0,42.667-22.963,42.667-51.2C358.401,432.566,339.261,409.602,315.735,409.602
				z M196.268,494.936c-14.114,0-25.6-15.309-25.6-34.133c0-18.825,11.486-34.133,25.6-34.133s25.6,15.309,25.6,34.133
				C221.868,479.627,210.382,494.936,196.268,494.936z M315.735,494.936c-10.001,0-18.594-7.765-22.801-18.944
				c-0.068-0.299-0.256-0.572-0.358-0.862c-1.527-4.369-2.441-9.19-2.441-14.327c0-18.825,11.486-34.133,25.6-34.133
				s25.6,15.309,25.6,34.133C341.335,479.627,329.849,494.936,315.735,494.936z"/>
			<path d="M301.16,338.801c3.294,3.328,8.695,3.362,12.049,0.06c2.483-2.441,7.714-6.059,11.059-6.059s8.576,3.618,11.034,6.033
				c1.664,1.664,3.849,2.5,6.033,2.5c2.185,0,4.369-0.836,6.033-2.5c3.337-3.336,3.337-8.73,0-12.066
				c-1.126-1.126-11.366-11.034-23.1-11.034s-21.973,9.907-23.1,11.034C297.84,330.089,297.84,335.465,301.16,338.801z"/>
			<path d="M324.268,106.669c0-7.057-5.743-12.8-12.8-12.8s-12.8,5.743-12.8,12.8s5.743,12.8,12.8,12.8
				S324.268,113.726,324.268,106.669z"/>
			<path d="M391.681,204.845c-4.685,0.469-8.107,4.651-7.637,9.344c10.018,100.122,15.676,186.778-16.648,233.207
				c-2.705,3.866-1.741,9.19,2.125,11.878c1.485,1.033,3.183,1.528,4.864,1.528c2.697,0,5.35-1.271,7.006-3.652
				c35.661-51.217,29.995-141.107,19.635-244.668C400.556,207.798,396.443,204.418,391.681,204.845z"/>
			<path d="M359.11,74.533c6.869-35.209-9.421-68.361-10.138-69.811c-1.024-2.031-2.799-3.567-4.941-4.284
				c-2.167-0.717-4.48-0.546-6.511,0.461c-0.742,0.375-16.606,8.525-26.726,30.993c-9.515-2.739-27.145-6.289-54.793-6.289
				s-45.278,3.55-54.793,6.289C191.088,9.423,175.225,1.274,174.482,0.898c-2.014-0.998-4.344-1.169-6.511-0.461
				c-2.142,0.717-3.917,2.253-4.941,4.284c-0.717,1.451-17.007,34.603-10.138,69.811C136.006,94.885,51.201,201.116,51.201,281.602
				c0,87.381,26.394,107.494,29.397,109.5c3.849,2.552,8.892,1.528,11.571-2.219c2.671-3.755,1.783-9.028-1.877-11.827
				c-0.222-0.162-22.025-17.724-22.025-95.454c0-81.169,99.345-198.076,100.352-199.245c1.792-2.099,2.466-4.941,1.792-7.629
				c-5.043-20.181-0.034-40.815,3.985-52.565c4.497,4.523,10.01,11.921,13.781,23.202c0.777,2.347,2.543,4.241,4.821,5.188
				c2.295,0.939,4.864,0.853,7.083-0.247c0.154-0.085,16.367-7.637,55.919-7.637c39.458,0,55.825,7.595,55.919,7.637
				c2.219,1.101,4.787,1.186,7.083,0.247c2.278-0.947,4.045-2.842,4.821-5.188c3.78-11.307,9.31-18.705,13.798-23.228
				c4.028,11.708,9.045,32.29,3.968,52.591c-0.674,2.688,0,5.53,1.801,7.629c0.998,1.169,100.343,118.007,100.343,199.245
				c0,76.638-21.188,94.78-21.999,95.437c-3.763,2.662-4.736,7.842-2.167,11.699c1.638,2.466,4.352,3.797,7.108,3.797
				c1.621,0,3.268-0.461,4.727-1.434c3.004-2.005,29.397-22.118,29.397-109.5C460.801,201.116,375.997,94.885,359.11,74.533z"/>
			<path d="M164.635,326.769c-3.328,3.319-3.328,8.695-0.009,12.032c3.294,3.328,8.687,3.362,12.049,0.06
				c2.483-2.441,7.714-6.059,11.059-6.059c3.345,0,8.576,3.618,11.034,6.033c1.664,1.664,3.849,2.5,6.033,2.5s4.369-0.836,6.033-2.5
				c3.337-3.336,3.337-8.73,0-12.066c-1.126-1.126-11.366-11.034-23.1-11.034S165.761,325.643,164.635,326.769z"/>
			<path d="M256.001,136.536c13.158,0,25.6-12.442,25.6-25.6c0-9.353-9.566-14.933-25.6-14.933s-25.6,5.581-25.6,14.933
				C230.401,124.094,242.843,136.536,256.001,136.536z M263.741,113.871c-1.502,2.944-4.864,5.598-7.74,5.598
				s-6.238-2.654-7.74-5.598C251.794,113.035,260.208,113.035,263.741,113.871z"/>
			<path d="M256.001,187.736c-70.579,0-128,61.252-128,136.533c0,29.722,8.798,57.984,25.446,81.715
				c1.664,2.372,4.301,3.635,6.997,3.635c1.69,0,3.396-0.503,4.89-1.544c3.857-2.714,4.796-8.03,2.082-11.887
				c-14.618-20.847-22.349-45.722-22.349-71.919c0-65.877,49.766-119.467,110.933-119.467s110.933,53.589,110.933,119.467
				c0,26.206-7.723,51.072-22.332,71.91c-2.714,3.857-1.775,9.173,2.082,11.887c3.866,2.705,9.182,1.766,11.887-2.091
				c16.64-23.723,25.429-51.977,25.429-81.707C384.001,248.988,326.58,187.736,256.001,187.736z"/>
			<path d="M213.335,106.669c0-7.057-5.743-12.8-12.8-12.8s-12.8,5.743-12.8,12.8s5.743,12.8,12.8,12.8
				S213.335,113.726,213.335,106.669z"/>
			<path d="M232.902,176.702c1.664,1.664,3.849,2.5,6.033,2.5c2.185,0,4.369-0.836,6.033-2.5c4.864-4.864,16.051-6.016,19.593-6.033
				c4.702-0.009,8.508-3.831,8.508-8.533c0-4.71-3.814-8.533-8.533-8.533c-2.108,0-20.907,0.307-31.633,11.034
				C229.565,167.973,229.565,173.366,232.902,176.702z"/>
		</g>
	</g>
</g>
</svg>