<?xml version="1.0" encoding="iso-8859-1"?>
<!-- Uploaded to: SVG Repo, www.svgrepo.com, Generator: SVG Repo Mixer Tools -->
<svg fill="#000000" height="800px" width="800px" version="1.1" id="Layer_1" xmlns="http://www.w3.org/2000/svg" xmlns:xlink="http://www.w3.org/1999/xlink" 
	 viewBox="0 0 512 512" xml:space="preserve">
<g>
	<g>
		<g>
			<path d="M344.83,366.267c-18.663,0-35.084,9.776-44.412,24.476c-9.329-14.7-25.751-24.476-44.415-24.476
				c-18.663,0-35.084,9.776-44.412,24.476c-9.328-14.7-25.751-24.476-44.413-24.476c-28.982,0-52.562,23.58-52.562,52.562v10.779
				c0,45.432,36.962,82.393,82.393,82.393H315c45.433,0,82.394-36.961,82.394-82.393v-10.779
				C397.393,389.847,373.814,366.267,344.83,366.267z M314.999,495.701H197.008c-36.445,0-66.094-29.65-66.094-66.094v-10.779
				c0-19.995,16.268-36.263,36.263-36.263c19.996,0,36.263,16.268,36.263,36.263c0,4.501,3.649,8.149,8.149,8.149
				s8.149-3.649,8.149-8.149c0-19.995,16.268-36.263,36.263-36.263c19.996,0,36.265,16.268,36.265,36.263
				c0,4.501,3.649,8.149,8.149,8.149c4.501,0,8.149-3.649,8.149-8.149c0-19.995,16.268-36.263,36.263-36.263
				c19.996,0,36.264,16.268,36.264,36.263l0,10.779C381.094,466.051,351.443,495.701,314.999,495.701z"/>
			<path d="M462.968,117.88c-11.268-24.454-27.592-45.929-48.521-63.83C373.695,19.195,317.425,0,256.001,0
				S138.306,19.195,97.554,54.05c-20.928,17.9-37.253,39.375-48.521,63.83c-11.79,25.588-17.769,53.906-17.769,84.17v23.828
				c0,31.103,25.305,56.407,56.408,56.407h7.164v17.783c0,32.619,26.537,59.155,59.156,59.155c21.702,0,40.713-11.747,51.006-29.218
				c10.293,17.47,29.304,29.218,51.007,29.218c21.702,0,40.713-11.747,51.006-29.218c10.293,17.47,29.304,29.218,51.006,29.218
				c32.619,0,59.155-26.537,59.155-59.155v-17.783h7.155c31.103,0,56.408-25.304,56.408-56.407V202.05
				C480.737,171.786,474.758,143.468,462.968,117.88z M464.438,225.879c0,22.116-17.994,40.109-40.11,40.109h-15.304
				c-4.501,0-8.149,3.649-8.149,8.149v25.932c0,23.632-19.226,42.857-42.857,42.857c-23.632,0-42.857-19.226-42.857-42.857
				c0-4.501-3.649-8.149-8.149-8.149s-8.149,3.649-8.149,8.149c0,23.632-19.225,42.857-42.857,42.857
				c-23.632,0-42.858-19.226-42.858-42.857c0-4.501-3.649-8.149-8.149-8.149c-4.501,0-8.149,3.649-8.149,8.149
				c0,23.632-19.225,42.857-42.857,42.857c-23.632,0-42.858-19.226-42.858-42.857v-25.932c0-4.501-3.649-8.149-8.149-8.149H87.674
				c-22.117,0-40.11-17.993-40.11-40.109V202.05c0-54.82,20.95-101.714,60.584-135.614c15.145-12.953,32.655-23.568,51.899-31.648
				l-0.352,7.956c-0.068,1.533,0.299,3.054,1.057,4.389l11.082,19.491l11.649,33.082c1.179,3.35,4.326,5.445,7.686,5.445
				c0.899,0,1.811-0.15,2.707-0.465c4.245-1.495,6.475-6.148,4.98-10.393l-6.299-17.89l10.705,3.674
				c0.877,0.301,1.768,0.443,2.646,0.443c3.385,0,6.548-2.125,7.707-5.507c1.461-4.257-0.806-8.893-5.063-10.353l-23.711-8.136
				l-8.759-15.403l0.554-12.518c24.517-8.069,51.342-12.303,79.365-12.303c57.542,0,110.051,17.806,147.853,50.139
				c39.635,33.9,60.584,80.794,60.584,135.614V225.879z"/>
			<circle cx="158.82" cy="444.522" r="8.262"/>
			<path d="M295.749,198.647c-3.459-3.466-8.06-5.376-12.961-5.377c-10.098,0-18.314,8.216-18.314,18.314
				c0,0.431,0.088,21.76,0.096,23.73v0.112c0,7.518,2.927,14.586,8.244,19.903c5.316,5.316,12.384,8.243,19.902,8.243h0.002
				c15.521,0,28.147-12.626,28.147-28.145c0-7.518-2.927-14.585-8.243-19.904L295.749,198.647z M292.718,247.271
				c-3.166,0.001-6.141-1.232-8.379-3.469s-3.469-5.213-3.469-8.412c0,0-0.096-23.195-0.097-23.807c0-1.112,0.904-2.016,2.012-2.016
				c0.691,0.001,1.157,0.322,1.433,0.598l16.878,16.879c2.238,2.238,3.471,5.214,3.471,8.38
				C304.566,241.957,299.252,247.271,292.718,247.271z"/>
			<circle cx="191.529" cy="471.382" r="8.262"/>
			<path d="M368.223,120.21c-26.216,0-47.543,21.328-47.543,47.544c0,26.215,21.327,47.543,47.543,47.543
				c26.216,0,47.543-21.327,47.543-47.543C415.767,141.538,394.439,120.21,368.223,120.21z M368.223,198.998
				c-17.229,0-31.244-14.016-31.244-31.244c0-17.229,14.016-31.245,31.244-31.245s31.244,14.017,31.244,31.245
				C399.469,184.981,385.452,198.998,368.223,198.998z"/>
			<circle cx="330.709" cy="54.716" r="8.262"/>
			<circle cx="388.527" cy="77.181" r="8.262"/>
			<path d="M143.778,120.21c-26.216,0-47.543,21.328-47.543,47.544c0,26.215,21.327,47.543,47.543,47.543
				s47.543-21.327,47.543-47.543C191.321,141.538,169.993,120.21,143.778,120.21z M143.778,198.998
				c-17.229,0-31.244-14.016-31.244-31.244c0-17.229,14.016-31.245,31.244-31.245c17.229,0,31.244,14.017,31.244,31.245
				C175.022,184.981,161.007,198.998,143.778,198.998z"/>
			<path d="M229.219,193.27c-4.895,0.001-9.497,1.911-12.951,5.372l-16.879,16.88c-5.317,5.317-8.244,12.385-8.244,19.903
				c0,15.52,12.627,28.146,28.147,28.146c0.001,0,0.001,0,0.003,0c7.517-0.001,14.586-2.927,19.902-8.243
				c5.317-5.317,8.244-12.385,8.244-19.87c0,0,0.097-23.421,0.097-23.873C247.537,201.485,239.32,193.27,229.219,193.27z
				 M231.141,235.245l-0.001,0.179c0,3.165-1.232,6.14-3.469,8.378c-2.238,2.238-5.212,3.469-8.376,3.469c-0.001,0-0.001,0-0.001,0
				c-0.001,0-0.001,0-0.001,0c-6.534,0-11.849-5.314-11.849-11.847c0-3.165,1.232-6.141,3.469-8.379l16.884-16.884
				c0.269-0.271,0.737-0.592,1.424-0.593c1.112,0,2.016,0.904,2.016,2.012C231.237,212.166,231.149,233.288,231.141,235.245z"/>
		</g>
	</g>
</g>
</svg>